<?xml version="1.0" standalone="no"?>
<!DOCTYPE svg PUBLIC "-//W3C//DTD SVG 20010904//EN"
 "http://www.w3.org/TR/2001/REC-SVG-20010904/DTD/svg10.dtd">
<svg version="1.0" xmlns="http://www.w3.org/2000/svg"
 width="225.000000pt" height="225.000000pt" viewBox="0 0 225.000000 225.000000"
 preserveAspectRatio="xMidYMid meet">
<metadata>
Created by potrace 1.14, written by Peter Selinger 2001-2017
</metadata>
<g transform="translate(0.000000,225.000000) scale(0.100000,-0.100000)"
fill="#000000" stroke="none">
<path d="M1160 1785 c0 -36 -3 -65 -6 -65 -3 0 -12 7 -21 15 -8 9 -18 13 -21
10 -4 -3 0 -10 7 -14 10 -7 12 -23 7 -65 l-7 -56 38 0 c21 0 54 -2 73 -4 19
-2 28 -2 19 1 -17 4 -29 50 -29 110 0 17 -6 34 -12 36 -8 3 -6 6 5 6 9 1 17
-6 17 -14 0 -8 9 -15 20 -15 18 0 20 7 20 60 l0 60 -55 0 -55 0 0 -65z m70 14
c0 -16 -4 -29 -10 -29 -5 0 -10 16 -10 36 0 21 4 33 10 29 6 -3 10 -19 10 -36z
m-70 -139 c0 -22 -4 -40 -10 -40 -5 0 -10 18 -10 40 0 22 5 40 10 40 6 0 10
-18 10 -40z"/>
<path d="M1280 1802 c0 -23 5 -42 10 -42 7 0 8 14 4 38 -9 51 -14 53 -14 4z"/>
<path d="M1280 1739 c0 -5 5 -7 10 -4 6 3 10 8 10 11 0 2 -4 4 -10 4 -5 0 -10
-5 -10 -11z"/>
<path d="M800 1713 c0 -6 8 -17 18 -24 16 -13 16 -13 2 6 -8 11 -16 22 -17 24
-2 2 -3 0 -3 -6z"/>
<path d="M770 1706 c0 -3 10 -22 22 -42 12 -21 17 -34 10 -30 -7 4 -12 2 -12
-3 0 -13 10 -14 28 -2 11 7 9 16 -10 45 -20 31 -38 46 -38 32z"/>
<path d="M732 1681 c-12 -7 -11 -14 2 -39 9 -17 21 -34 28 -38 8 -5 7 -9 -5
-13 -14 -5 -13 -11 11 -48 15 -24 29 -43 32 -43 3 1 17 11 33 23 l27 23 -56
58 c-34 34 -53 63 -50 72 6 16 -2 18 -22 5z m68 -132 c6 -11 9 -25 7 -32 -2
-7 -11 3 -21 21 -9 17 -12 32 -7 32 6 0 15 -9 21 -21z"/>
<path d="M770 1655 c7 -9 15 -13 17 -11 7 7 -7 26 -19 26 -6 0 -6 -6 2 -15z"/>
<path d="M717 1611 c-3 -13 -1 -18 9 -14 7 2 10 11 7 19 -7 19 -10 18 -16 -5z"/>
<path d="M677 1576 c10 -13 19 -23 21 -21 5 5 -22 45 -31 45 -4 0 0 -11 10
-24z"/>
<path d="M1275 1591 c-3 -5 -1 -12 5 -16 6 -4 8 -10 5 -15 -3 -4 5 -6 16 -3
21 6 21 6 -2 18 -21 12 -22 13 -3 18 15 4 15 5 2 6 -9 0 -19 -3 -23 -8z"/>
<path d="M1328 1583 c7 -3 16 -2 19 1 4 3 -2 6 -13 5 -11 0 -14 -3 -6 -6z"/>
<path d="M1070 1570 c-11 -8 -7 -9 15 -4 37 8 45 14 19 14 -10 0 -26 -5 -34
-10z"/>
<path d="M1360 1570 c0 -5 6 -10 14 -10 8 0 23 -3 33 -6 10 -3 7 2 -7 10 -30
18 -40 20 -40 6z"/>
<path d="M1008 1563 c6 -2 18 -2 25 0 6 3 1 5 -13 5 -14 0 -19 -2 -12 -5z"/>
<path d="M1445 1535 c11 -9 19 -19 18 -23 -1 -4 1 -9 4 -12 4 -3 3 1 -1 8 -4
6 -4 12 0 12 9 0 77 -50 86 -64 9 -13 -1 -28 -13 -21 -5 4 -9 2 -9 -4 0 -5 5
-13 10 -16 6 -3 10 -11 10 -16 0 -6 -4 -8 -8 -5 -4 2 -14 -4 -20 -15 -12 -19
-12 -19 11 -4 13 8 27 12 32 8 4 -5 3 2 -4 14 -15 30 -14 38 4 23 8 -7 15 -9
15 -5 0 5 9 0 20 -10 11 -10 17 -22 13 -28 -4 -6 -1 -7 7 -2 10 6 12 0 8 -23
-3 -22 -1 -29 9 -25 14 6 18 -13 4 -21 -5 -3 -11 -15 -14 -26 -3 -11 -1 -18 4
-14 5 3 9 11 9 18 0 7 10 12 21 11 16 -1 28 -16 46 -59 13 -32 22 -65 19 -72
-3 -8 -2 -14 3 -14 5 0 14 -21 20 -47 l10 -48 -5 44 c-10 92 -83 259 -107 244
-6 -4 -8 0 -4 11 9 22 -110 141 -173 174 -25 13 -36 16 -25 7z m225 -225 c0
-5 -5 -10 -11 -10 -5 0 -7 5 -4 10 3 6 8 10 11 10 2 0 4 -4 4 -10z"/>
<path d="M1038 1533 c7 -3 16 -2 19 1 4 3 -2 6 -13 5 -11 0 -14 -3 -6 -6z"/>
<path d="M918 1523 c7 -3 16 -2 19 1 4 3 -2 6 -13 5 -11 0 -14 -3 -6 -6z"/>
<path d="M869 1493 c-13 -17 -13 -17 6 -3 11 8 22 16 24 17 2 2 0 3 -6 3 -6 0
-17 -8 -24 -17z"/>
<path d="M1288 1493 c7 -3 16 -2 19 1 4 3 -2 6 -13 5 -11 0 -14 -3 -6 -6z"/>
<path d="M1440 1496 c0 -3 9 -10 20 -16 11 -6 20 -8 20 -6 0 3 -9 10 -20 16
-11 6 -20 8 -20 6z"/>
<path d="M918 1483 c7 -3 16 -2 19 1 4 3 -2 6 -13 5 -11 0 -14 -3 -6 -6z"/>
<path d="M1000 1469 c-25 -10 -51 -16 -58 -14 -7 3 -10 1 -7 -4 3 -5 1 -12 -5
-16 -5 -3 -10 -1 -10 4 0 6 -5 11 -11 11 -6 0 -9 -7 -6 -14 4 -9 -2 -17 -13
-21 -38 -12 -110 -92 -148 -165 -129 -245 -34 -538 215 -662 144 -72 286 -73
430 -3 296 145 330 576 62 801 -24 20 -43 41 -41 46 1 5 -2 7 -7 3 -6 -3 -27
4 -48 15 -21 11 -45 20 -55 20 -9 0 -20 5 -23 10 -4 6 -53 10 -118 9 -84 -1
-123 -6 -157 -20z m240 -19 c164 -31 302 -162 345 -325 55 -214 -40 -441 -218
-520 -186 -82 -380 -45 -522 99 -105 106 -147 230 -126 373 37 256 268 421
521 373z"/>
<path d="M1144 1375 c-8 -20 5 -87 15 -80 11 6 20 65 14 83 -7 17 -22 15 -29
-3z"/>
<path d="M1370 1264 c-12 -19 -19 -38 -16 -41 8 -9 66 47 66 64 0 25 -29 13
-50 -23z"/>
<path d="M940 1242 c0 -11 22 -32 32 -32 5 0 4 9 -2 20 -11 20 -30 28 -30 12z"/>
<path d="M1310 1075 c-79 -24 -125 -33 -148 -29 -25 5 -36 2 -46 -12 -8 -10
-29 -23 -47 -29 -19 -7 -36 -20 -37 -30 -3 -15 1 -17 35 -11 21 4 48 7 60 7
21 1 21 3 9 21 -8 11 -12 27 -9 34 8 21 44 17 50 -6 3 -11 7 -20 10 -20 9 0
253 102 253 106 0 7 -10 4 -130 -31z"/>
<path d="M770 1050 c0 -5 5 -10 10 -10 6 0 10 5 10 10 0 6 -4 10 -10 10 -5 0
-10 -4 -10 -10z"/>
<path d="M817 1046 c-5 -12 1 -16 23 -16 17 0 30 5 30 10 0 6 -4 10 -9 10 -5
0 -16 3 -24 6 -8 3 -17 -2 -20 -10z"/>
<path d="M1470 1001 c-24 -7 -23 -8 17 -21 42 -13 84 -7 67 10 -14 14 -56 19
-84 11z"/>
<path d="M903 810 c-33 -20 -45 -50 -20 -50 13 0 46 32 61 58 10 17 -4 15 -41
-8z"/>
<path d="M1350 805 c0 -14 46 -75 57 -75 26 0 22 22 -9 50 -30 28 -48 37 -48
25z"/>
<path d="M1112 707 c-16 -44 -15 -67 2 -67 23 0 36 59 18 87 -5 9 -12 2 -20
-20z"/>
<path d="M1490 1480 c0 -6 7 -13 15 -16 8 -4 12 -11 8 -17 -3 -6 -1 -7 5 -3
15 9 15 9 -8 29 -11 9 -20 12 -20 7z"/>
<path d="M1741 1455 c47 -55 79 -107 106 -179 13 -34 21 -47 18 -31 -11 56
-73 170 -116 210 l-43 40 35 -40z"/>
<path d="M1423 1433 c0 -9 4 -10 14 -2 7 6 13 12 13 14 0 1 -6 2 -13 2 -8 0
-14 -6 -14 -14z"/>
<path d="M1871 1435 c27 -32 48 -81 64 -142 13 -51 14 -53 10 -14 -7 57 -41
135 -68 158 -22 18 -22 18 -6 -2z"/>
<path d="M758 1393 c-24 -29 -32 -46 -19 -42 7 3 11 7 9 11 -2 3 6 15 16 27
11 12 17 21 14 21 -3 0 -12 -8 -20 -17z"/>
<path d="M1486 1402 c-2 -4 4 -8 14 -8 10 0 16 4 14 8 -3 4 -9 8 -14 8 -5 0
-11 -4 -14 -8z"/>
<path d="M700 1355 c-101 -147 -146 -364 -105 -503 9 -29 13 -56 10 -61 -7
-12 5 -42 15 -36 9 6 23 -25 15 -33 -3 -3 -5 1 -5 8 0 7 -2 11 -5 8 -9 -9 36
-79 46 -72 5 3 6 -1 4 -8 -6 -14 94 -133 103 -124 3 3 12 -3 20 -15 8 -11 20
-18 28 -15 8 3 19 -4 25 -15 6 -11 13 -18 16 -15 3 3 12 -2 20 -10 9 -8 22
-13 30 -10 8 3 12 2 9 -3 -3 -5 3 -11 14 -14 13 -3 18 -1 13 6 -3 7 3 4 15 -7
12 -10 28 -16 37 -12 9 3 14 2 10 -3 -8 -13 56 -19 180 -17 87 2 124 7 175 26
84 30 189 99 241 158 81 92 158 268 129 295 -10 10 -11 9 -5 -1 9 -16 -14
-102 -27 -102 -5 0 -7 -4 -4 -9 8 -13 -19 -62 -29 -53 -5 4 -6 2 -2 -3 8 -15
-36 -83 -51 -78 -6 3 -9 10 -6 15 4 7 2 8 -4 4 -7 -4 -12 -2 -12 4 0 6 7 13
15 16 8 4 15 15 15 26 0 10 4 17 9 13 5 -3 13 0 17 6 4 8 3 9 -4 5 -16 -9 -15
-3 3 41 30 70 14 67 -20 -5 -40 -85 -130 -181 -212 -225 -63 -34 -189 -67
-254 -67 -26 0 -50 -3 -53 -8 -6 -10 183 4 215 16 19 8 30 7 39 -1 10 -9 11
-9 6 0 -4 8 6 18 29 27 20 9 49 25 66 36 16 12 29 18 29 13 0 -4 5 0 11 10 5
9 17 17 25 17 8 0 12 -4 9 -10 -12 -19 7 -10 25 12 12 15 15 27 9 34 -6 7 -4
16 5 23 12 10 17 9 25 -7 8 -15 4 -26 -21 -56 -18 -22 -36 -35 -45 -32 -9 4
-11 2 -7 -6 5 -8 1 -9 -12 -4 -10 4 -15 4 -12 0 12 -11 -20 -34 -39 -28 -13 4
-15 3 -4 -4 16 -12 -3 -27 -21 -16 -7 4 -8 3 -4 -4 4 -7 3 -12 -2 -12 -17 0
-22 13 -9 28 10 13 9 14 -11 3 -18 -10 -21 -15 -12 -26 9 -11 8 -14 -7 -14
-10 0 -52 -7 -93 -15 -41 -9 -95 -16 -120 -16 -59 0 -200 27 -218 42 -8 7 -23
13 -33 15 -28 4 -70 34 -63 44 3 5 -2 6 -10 3 -10 -4 -27 6 -46 24 -16 17 -30
28 -30 24 0 -3 -11 5 -25 18 -14 13 -23 25 -21 27 2 2 -7 15 -21 29 -29 29
-82 139 -88 182 -2 17 -6 36 -9 41 -10 15 -17 161 -8 161 4 0 6 16 4 35 -2 19
0 35 6 35 5 0 13 7 16 16 3 8 2 12 -4 9 -6 -3 -10 -2 -10 3 0 21 43 132 76
194 19 38 32 68 30 68 -3 0 -19 -20 -36 -45z m869 -761 c-6 -7 -15 -11 -21 -8
-5 3 -4 12 3 20 6 7 15 11 21 8 5 -3 4 -12 -3 -20z"/>
<path d="M1583 1385 c0 -8 4 -12 9 -9 5 3 6 10 3 15 -9 13 -12 11 -12 -6z"/>
<path d="M1605 1300 c-4 -6 -11 -7 -17 -4 -7 4 -8 2 -4 -4 10 -16 23 -15 30 3
6 17 0 20 -9 5z"/>
<path d="M434 1243 c-14 -31 -27 -79 -29 -107 l-4 -51 8 46 c5 25 20 73 34
107 31 78 24 81 -9 5z"/>
<path d="M680 1248 c0 -9 5 -20 10 -23 13 -8 13 5 0 25 -8 13 -10 13 -10 -2z"/>
<path d="M1680 1195 c0 -8 2 -15 4 -15 2 0 6 7 10 15 3 8 1 15 -4 15 -6 0 -10
-7 -10 -15z"/>
<path d="M1872 1185 c0 -16 2 -22 5 -12 2 9 2 23 0 30 -3 6 -5 -1 -5 -18z"/>
<path d="M306 1138 c-3 -13 -5 -48 -4 -78 1 -52 1 -51 8 20 8 79 7 96 -4 58z"/>
<path d="M401 1009 c-1 -36 27 -145 35 -136 2 2 0 17 -6 33 -6 16 -15 54 -19
84 -7 44 -9 48 -10 19z"/>
<path d="M311 984 c0 -11 3 -14 6 -6 3 7 2 16 -1 19 -3 4 -6 -2 -5 -13z"/>
<path d="M1761 984 c0 -11 3 -14 6 -6 3 7 2 16 -1 19 -3 4 -6 -2 -5 -13z"/>
<path d="M651 974 c0 -11 3 -14 6 -6 3 7 2 16 -1 19 -3 4 -6 -2 -5 -13z"/>
<path d="M1752 920 c0 -19 2 -27 5 -17 2 9 2 25 0 35 -3 9 -5 1 -5 -18z"/>
<path d="M1701 834 c0 -11 3 -14 6 -6 3 7 2 16 -1 19 -3 4 -6 -2 -5 -13z"/>
<path d="M1680 799 c0 -5 5 -7 10 -4 6 3 10 8 10 11 0 2 -4 4 -10 4 -5 0 -10
-5 -10 -11z"/>
<path d="M700 751 c0 -6 4 -13 10 -16 6 -3 7 1 4 9 -7 18 -14 21 -14 7z"/>
<path d="M710 709 c0 -5 5 -7 10 -4 6 3 10 8 10 11 0 2 -4 4 -10 4 -5 0 -10
-5 -10 -11z"/>
<path d="M726 684 c-9 -23 3 -37 20 -23 10 8 14 8 14 0 0 -6 5 -11 11 -11 8 0
8 5 -1 15 -10 12 -16 13 -28 3 -13 -11 -14 -10 -8 10 8 25 1 30 -8 6z"/>
<path d="M780 629 c0 -5 -6 -7 -12 -3 -8 5 -8 1 2 -12 8 -10 15 -20 16 -22 1
-2 2 9 2 23 0 14 -2 25 -4 25 -2 0 -4 -5 -4 -11z"/>
<path d="M832 571 c-11 -7 -11 -9 0 -14 9 -3 15 1 15 9 0 8 -1 14 -1 14 -1 0
-7 -4 -14 -9z"/>
<path d="M1018 463 c7 -3 16 -2 19 1 4 3 -2 6 -13 5 -11 0 -14 -3 -6 -6z"/>
<path d="M1328 463 c7 -3 16 -2 19 1 4 3 -2 6 -13 5 -11 0 -14 -3 -6 -6z"/>
</g>
</svg>
